<?xml version="1.0" encoding="UTF-8" standalone="no"?>
<svg
   id="Layer_1"
   data-name="Layer 1"
   viewBox="0 0 468.49431 63.108827"
   version="1.1"
   sodipodi:docname="Exoscale-RGB-logo-fullcolor.svg"
   width="468.49429"
   height="63.108826"
   inkscape:version="1.1.1 (3bf5ae0d25, 2021-09-20)"
   xmlns:inkscape="http://www.inkscape.org/namespaces/inkscape"
   xmlns:sodipodi="http://sodipodi.sourceforge.net/DTD/sodipodi-0.dtd"
   xmlns="http://www.w3.org/2000/svg"
   xmlns:svg="http://www.w3.org/2000/svg"
   xmlns:rdf="http://www.w3.org/1999/02/22-rdf-syntax-ns#"
   xmlns:cc="http://creativecommons.org/ns#"
   xmlns:dc="http://purl.org/dc/elements/1.1/">
  <sodipodi:namedview
     id="namedview29"
     pagecolor="#ffffff"
     bordercolor="#666666"
     borderopacity="1.0"
     inkscape:pageshadow="2"
     inkscape:pageopacity="0.0"
     inkscape:pagecheckerboard="0"
     showgrid="false"
     fit-margin-top="0"
     fit-margin-left="0"
     fit-margin-right="0"
     fit-margin-bottom="0"
     inkscape:zoom="1.4723073"
     inkscape:cx="223.79839"
     inkscape:cy="-19.696975"
     inkscape:window-width="1920"
     inkscape:window-height="1010"
     inkscape:window-x="-6"
     inkscape:window-y="-6"
     inkscape:window-maximized="1"
     inkscape:current-layer="Layer_1" />
  <defs
     id="defs4">
    <style
       id="style2">.cls-1{fill:#da291c;}.cls-2{fill:none;}</style>
  </defs>
  <title
     id="title6">Artboard 1</title>
  <g
     id="g1215"
     transform="translate(-15.780685,-15.780685)">
    <polygon
       class="cls-1"
       points="30.04,56.69 37.52,43.73 37.52,50.21 33.78,56.69 37.52,56.69 37.53,56.69 63.71,56.69 37.52,11.34 11.34,56.69 15.08,56.69 37.52,17.82 37.52,24.3 18.82,56.69 22.56,56.69 37.52,30.77 37.52,37.25 26.3,56.69 "
       id="polygon8"
       transform="scale(1.3915948)" />
    <path
       d="m 104.43919,24.784303 h 33.39827 v 7.097134 h -25.4801 v 11.717228 h 22.62734 v 7.152797 h -22.62734 v 12.037295 h 25.84192 v 7.083218 h -33.76009 z"
       id="path10"
       style="stroke-width:1.39159" />
    <path
       d="m 189.34039,24.784303 -15.72502,22.028946 16.36515,23.058726 h -9.3376 L 168.73087,52.685779 156.87448,69.871975 h -9.08711 L 164.08294,46.952409 148.44142,24.784303 h 9.3376 l 11.13276,16.309491 11.32758,-16.309491 z"
       id="path12"
       style="stroke-width:1.39159" />
    <path
       d="m 196.54885,47.467299 v -0.153076 a 23.573699,23.573699 0 0 1 47.14723,-0.125243 v 0.125243 a 23.573719,23.573719 0 0 1 -47.14723,0.13916 z m 38.83941,0 v -0.153076 c 0,-8.753131 -6.3735,-15.961592 -15.30754,-15.961592 -8.93404,0 -15.21013,7.083217 -15.21013,15.836349 v 0.125243 c 0,8.767047 6.3735,15.975509 15.30754,15.975509 8.93404,0 15.21013,-7.069302 15.21013,-15.822433 z"
       id="path14"
       style="stroke-width:1.39159" />
    <path
       d="m 253.56249,63.303647 4.75925,-5.66379 c 4.31395,3.729474 8.69747,5.858614 14.23602,5.858614 4.89841,0 7.98775,-2.310048 7.98775,-5.663791 v -0.125244 c 0,-3.2285 -1.79516,-4.967993 -10.17256,-6.957974 -9.602,-2.310047 -15.0153,-5.1489 -15.0153,-13.456721 v -0.125244 c 0,-7.737267 6.44308,-13.080991 15.40495,-13.080991 a 24.951295,24.951295 0 0 1 16.35124,5.677707 l -4.17479,5.983857 a 20.442528,20.442528 0 0 0 -12.24603,-4.63401 c -4.63401,0 -7.3337,2.379627 -7.3337,5.343724 v 0.125243 c 0,3.478987 2.05956,5.023658 10.75702,7.083218 9.53243,2.323963 14.41693,5.73337 14.41693,13.206234 v 0.180908 c 0,8.44698 -6.624,13.470637 -16.10076,13.470637 a 27.720568,27.720568 0 0 1 -18.87002,-7.222377 z"
       id="path16"
       style="stroke-width:1.39159" />
    <path
       d="m 299.41554,47.467299 v -0.153076 a 22.794323,22.794323 0 0 1 23.19788,-23.309213 23.5597,23.5597 0 0 1 17.715,6.957974 l -5.09323,5.87253 c -3.67381,-3.353743 -7.47287,-5.566379 -12.69135,-5.566379 -8.50264,0 -14.80657,6.957974 -14.80657,15.836349 v 0.208739 c 0,8.836627 6.23435,15.975509 14.87615,15.975509 5.56638,0 9.0732,-2.184804 12.94183,-5.789035 l 5.09324,5.148901 c -4.70359,4.898414 -9.85249,7.987754 -18.29947,7.987754 A 22.641247,22.641247 0 0 1 299.41554,47.467299 Z"
       id="path18"
       style="stroke-width:1.39159" />
    <path
       d="m 368.53605,24.464237 h 7.34762 l 19.83023,45.407738 h -8.34957 l -4.57835,-10.882271 h -21.33315 l -4.63401,10.882271 h -8.12691 z m 11.36933,27.511829 -7.79293,-18.090733 -7.73727,18.090733 z"
       id="path20"
       style="stroke-width:1.39159" />
    <path
       d="m 407.05539,24.784303 h 7.91818 v 37.837463 h 23.65711 v 7.208461 h -31.57529 z"
       id="path22"
       style="stroke-width:1.39159" />
    <path
       d="m 450.47315,24.784303 h 33.39828 v 7.097134 h -25.4801 v 11.717228 h 22.61341 v 7.152797 h -22.61341 v 12.037295 h 25.88366 v 7.083218 h -33.80184 z"
       id="path24"
       style="stroke-width:1.39159" />
  </g>
  <metadata
     id="metadata846">
    <rdf:RDF>
      <cc:Work
         rdf:about="">
        <dc:title>Artboard 1</dc:title>
      </cc:Work>
    </rdf:RDF>
  </metadata>
</svg>
