<?xml version="1.0" encoding="UTF-8" standalone="no"?>
<!-- Generator: Adobe Illustrator 15.0.0, SVG Export Plug-In . SVG Version: 6.00 Build 0)  -->

<svg
   version="1.1"
   id="Layer_1"
   x="0px"
   y="0px"
   width="734.622px"
   height="214.949px"
   viewBox="0 0 734.622 214.949"
   enable-background="new 0 0 734.622 214.949"
   xml:space="preserve"
   sodipodi:docname="CoreOS-horizontal.svg"
   inkscape:version="1.1.1 (3bf5ae0d25, 2021-09-20)"
   xmlns:inkscape="http://www.inkscape.org/namespaces/inkscape"
   xmlns:sodipodi="http://sodipodi.sourceforge.net/DTD/sodipodi-0.dtd"
   xmlns="http://www.w3.org/2000/svg"
   xmlns:svg="http://www.w3.org/2000/svg"><defs
   id="defs23" /><sodipodi:namedview
   id="namedview21"
   pagecolor="#ffffff"
   bordercolor="#666666"
   borderopacity="1.0"
   inkscape:pageshadow="2"
   inkscape:pageopacity="0.0"
   inkscape:pagecheckerboard="0"
   showgrid="false"
   inkscape:zoom="1.4401964"
   inkscape:cx="366.96383"
   inkscape:cy="107.62421"
   inkscape:window-width="1920"
   inkscape:window-height="1010"
   inkscape:window-x="-6"
   inkscape:window-y="-6"
   inkscape:window-maximized="1"
   inkscape:current-layer="Layer_1" />








<g
   id="g849"><path
     fill="#53A3DA"
     d="M107.479,0C48.208,0,0,48.213,0,107.473c0,59.267,48.209,107.476,107.479,107.476  c59.252,0,107.465-48.209,107.465-107.476C214.943,48.213,166.73,0,107.479,0z"
     id="path2" /><path
     fill="#F1606D"
     d="M107.479,9.863c-17.283,0-31.941,27.645-37.235,66.069c-0.169,1.235-0.333,2.486-0.478,3.746  c-0.723,6.047-1.213,12.334-1.458,18.808c-0.117,2.962-0.175,5.956-0.175,8.987c0,3.029,0.058,6.029,0.175,8.984  c0.245,6.473,0.735,12.766,1.458,18.812c8.104,1.05,16.769,1.761,25.807,2.099c3.907,0.146,7.872,0.233,11.907,0.233  c4.023,0,8-0.088,11.895-0.233c9.049-0.338,17.708-1.049,25.819-2.099c0.892-0.114,1.77-0.239,2.659-0.369  c33.754-4.739,57.235-15.23,57.235-27.428C205.086,53.562,161.381,9.863,107.479,9.863z"
     id="path4" /><path
     fill="#FFFFFF"
     d="M147.852,80.042c-0.979-1.428-2.029-2.796-3.148-4.11c-8.956-10.557-22.297-17.265-37.224-17.265  c-4.839,0-9.148,7.407-11.907,18.909c-1.096,4.586-1.947,9.818-2.495,15.498c-0.432,4.551-0.665,9.391-0.665,14.398  s0.233,9.851,0.665,14.396c4.554,0.432,9.387,0.664,14.402,0.664c5.009,0,9.842-0.232,14.396-0.664  c10.011-0.951,18.653-2.875,24.775-5.412c6.046-2.5,9.624-5.613,9.624-8.984C156.273,97.305,153.168,87.862,147.852,80.042z"
     id="path6" /><path
     fill="#231F20"
     d="M316.201,54.526c12.585,0,22.816,6.138,29.264,13.062L335.4,78.915c-5.353-5.191-11.175-8.495-19.041-8.495  c-16.839,0-28.953,14.16-28.953,37.291c0,23.449,11.169,37.608,28.32,37.608c9.128,0,15.895-3.774,21.717-10.229l10.067,11.17  c-8.334,9.598-19.038,14.949-32.1,14.949c-26.117,0-46.729-18.881-46.729-53.025C268.681,74.51,289.765,54.526,316.201,54.526z"
     id="path8" /><path
     fill="#231F20"
     d="M388.272,80.174c19.352,0,36.822,14.793,36.822,40.598c0,25.646-17.471,40.438-36.822,40.438  c-19.197,0-36.66-14.791-36.66-40.438C351.612,94.967,369.075,80.174,388.272,80.174z M388.272,146.418  c11.33,0,18.25-10.229,18.25-25.646c0-15.577-6.92-25.805-18.25-25.805s-18.094,10.228-18.094,25.805  C370.178,136.19,376.942,146.418,388.272,146.418z"
     id="path10" /><path
     fill="#231F20"
     d="M431.083,82.063h14.941l1.26,13.688h0.631c5.506-10.07,13.689-15.576,21.869-15.576  c3.938,0,6.455,0.471,8.812,1.573l-3.148,15.733c-2.67-0.783-4.717-1.256-8.018-1.256c-6.139,0-13.539,4.244-18.256,15.894v47.203  h-18.092V82.063z"
     id="path12" /><path
     fill="#231F20"
     d="M512.432,80.174c20.928,0,31.939,15.107,31.939,36.668c0,3.457-0.312,6.604-0.785,8.494h-49.092  c1.57,14.004,10.381,21.869,22.812,21.869c6.613,0,12.271-2.041,17.939-5.662l6.137,11.326c-7.396,4.877-16.678,8.34-26.434,8.34  c-21.402,0-38.08-14.949-38.08-40.438C476.872,95.594,494.334,80.174,512.432,80.174z M528.637,113.85  c0-12.277-5.189-19.672-15.732-19.672c-9.125,0-16.996,6.769-18.568,19.672H528.637z"
     id="path14" /><path
     fill="#F1606D"
     d="M571.913,107.081c0-32.729,17.785-53.344,42.801-53.344c24.861,0,42.641,20.615,42.641,53.344  c0,32.889-17.777,54.129-42.641,54.129C589.698,161.209,571.913,139.969,571.913,107.081z M649.801,107.081  c0-28.639-14.158-46.731-35.09-46.731c-21.084,0-35.248,18.092-35.248,46.731c0,28.795,14.164,47.521,35.248,47.521  C635.643,154.602,649.801,135.875,649.801,107.081z"
     id="path16" /><path
     fill="#53A4D9"
     d="M671.049,140.598c7.557,8.496,18.412,14.004,30.527,14.004c15.732,0,25.809-8.5,25.809-20.768  c0-12.904-8.494-17.154-18.725-21.717l-15.734-7.083c-8.971-3.937-20.936-10.386-20.936-25.808  c0-14.947,12.904-25.493,30.061-25.493c12.588,0,22.658,5.665,28.947,12.435l-4.242,4.878c-5.982-6.451-14.32-10.7-24.705-10.7  c-13.691,0-22.816,7.239-22.816,18.565c0,11.962,10.385,16.521,17.936,19.984l15.738,6.922  c11.486,5.195,21.713,11.646,21.713,27.539s-13.061,27.852-33.201,27.852c-15.105,0-26.75-6.451-34.932-15.576L671.049,140.598z"
     id="path18" /></g>
</svg>
