<?xml version="1.0" encoding="UTF-8" standalone="no"?>
<svg
   width="500"
   height="257.80527"
   viewBox="0 0 500 257.80526"
   version="1.1"
   id="svg45"
   sodipodi:docname="Snyk-black.svg"
   inkscape:version="1.1.1 (3bf5ae0d25, 2021-09-20)"
   xmlns:inkscape="http://www.inkscape.org/namespaces/inkscape"
   xmlns:sodipodi="http://sodipodi.sourceforge.net/DTD/sodipodi-0.dtd"
   xmlns:xlink="http://www.w3.org/1999/xlink"
   xmlns="http://www.w3.org/2000/svg"
   xmlns:svg="http://www.w3.org/2000/svg"
   xmlns:rdf="http://www.w3.org/1999/02/22-rdf-syntax-ns#"
   xmlns:cc="http://creativecommons.org/ns#"
   xmlns:dc="http://purl.org/dc/elements/1.1/">
  <sodipodi:namedview
     id="namedview47"
     pagecolor="#ffffff"
     bordercolor="#666666"
     borderopacity="1.0"
     inkscape:pageshadow="2"
     inkscape:pageopacity="0.0"
     inkscape:pagecheckerboard="0"
     showgrid="false"
     fit-margin-top="0"
     fit-margin-left="0"
     fit-margin-right="0"
     fit-margin-bottom="0"
     inkscape:zoom="1.7574751"
     inkscape:cx="198.29584"
     inkscape:cy="105.26465"
     inkscape:window-width="1920"
     inkscape:window-height="1010"
     inkscape:window-x="-6"
     inkscape:window-y="-6"
     inkscape:window-maximized="1"
     inkscape:current-layer="svg45" />
  <!-- Generator: Sketch 51.2 (57519) - http://www.bohemiancoding.com/sketch -->
  <title
     id="title2">logo-black</title>
  <desc
     id="desc4">Created with Sketch.</desc>
  <defs
     id="defs7">
    <path
       d="m 59.634561,150.42935 c -2.498976,-1.86139 -5.062544,-4.20998 -5.062544,-6.01171 0,-1.18351 2.13172,-4.83116 2.13172,-4.83116 h 15.851416 c 0,0 2.078942,3.23399 2.078942,4.83116 0,1.67768 -2.587538,3.96166 -5.169495,5.82309 -0.878894,-1.48563 -1.997043,-1.74365 -2.513766,-0.57261 -0.266679,0.60669 -0.319205,1.48023 -0.188917,2.39437 -1.406042,0.89165 -2.433469,1.46619 -2.433469,1.46619 0,0 -0.793561,-0.45518 -1.928041,-1.18743 0.182979,-1.01319 0.147804,-2.00507 -0.146778,-2.67313 -0.521179,-1.18674 -1.661669,-0.90584 -2.547343,0.63304 -0.02436,0.0422 -0.04827,0.085 -0.07173,0.12819 z"
       id="path-1" />
  </defs>
  <g
     id="logo-black"
     stroke="none"
     stroke-width="1"
     fill="none"
     fill-rule="evenodd"
     transform="matrix(1.2646165,0,0,1.2646165,-129.58104,-83.464355)">
    <g
       id="logo"
       transform="translate(46,50)">
      <g
         id="snyk-wordmark"
         transform="translate(210,59)"
         fill="#091c30"
         fill-rule="nonzero">
        <path
           d="m 202.46307,69.42807 h -1.53724 v 26.5089 H 181.84602 V 29.93522 L 200.92583,0.18033265 V 61.763933 c 3.79788,-4.643566 16.59311,-22.271083 16.59311,-22.271083 h 23.55589 l -22.33514,23.578494 23.10376,32.910709 h -24.09844 z m -53.17029,-4.327983 7.82182,-25.426904 h 18.89896 l -22.15429,56.083454 c -6.60107,16.861103 -16.05055,28.267143 -30.15696,28.267143 -5.42554,0 -9.99203,-1.39758 -12.38831,-2.75007 l 7.59575,-11.72162 c 1.13032,0.13524 2.30586,0.18033 3.48139,0.18033 6.51065,0 11.39363,-6.31164 14.55853,-13.79545 L 113.71028,39.673183 h 21.38567 l 8.36437,25.111321 c 1.62766,4.778816 2.8032,13.885615 2.8032,13.885615 0,0 1.49202,-8.791217 3.02926,-13.570032 z M 91.646413,63.792675 c 0,-7.348556 -3.255324,-10.819959 -9.449482,-10.819959 -3.02926,0 -6.194158,0.85658 -8.364374,2.163992 V 95.93697 H 54.752741 V 40.214181 l 18.6729,-1.532828 -0.452128,9.106799 h 0.63298 c 4.023942,-5.409979 10.85108,-9.512547 18.98939,-9.512547 9.765977,0 18.220767,6.041144 18.220767,20.332506 V 95.93697 H 91.646413 Z M 0.1356385,93.051648 1.8537262,80.067697 c 5.968094,2.930405 12.7048058,4.327983 18.3564098,4.327983 4.114368,0 6.827138,-1.397578 6.827138,-3.877152 0,-7.123139 -25.7261018,-5.409979 -25.7261018,-24.029325 0,-11.901955 10.9415058,-18.168515 24.6409938,-18.168515 6.827138,0 13.88034,1.84841 18.446836,3.471404 l -1.853726,12.758535 c -4.79256,-1.84841 -11.303208,-3.56157 -16.728748,-3.56157 -3.34575,0 -6.05852,1.172162 -6.05852,3.336154 0,7.032973 26.268657,5.635395 26.268657,23.80391 0,12.082287 -10.760655,19.025095 -25.500039,19.025095 -8.13831,0 -14.7393833,-1.397579 -20.3909875,-4.102568 z"
           id="path9" />
      </g>
      <g
         id="snyk-dog"
         fill-rule="evenodd"
         stroke-width="1">
        <g
           id="dog"
           transform="translate(56.466667,15.73)">
          <path
             d="M 112.13264,54.062143 H 17.224458 c 0,-5.931891 8.578664,-23.862694 25.735993,-53.79240746 0,0 2.375542,15.78485846 7.126625,47.35457446 l 28.994882,7.36e-4 7.116874,-47.35531046 C 103.48804,30.596318 112.13264,48.52712 112.13264,54.062143 Z"
             id="shield-outline-ears"
             fill="#ffffff"
             fill-rule="nonzero" />
          <path
             d="M 64.533333,204.13018 0,158.97497 V 53.585786 c 0,0 23.860016,-8.792977 64.616081,-8.792977 40.756069,0 64.441589,8.792977 64.441589,8.792977 V 158.97497 Z"
             id="shield-outline"
             fill="#ffffff"
             fill-rule="nonzero" />
          <path
             d="M 64.533333,197.78317 4.1232484,155.68944 V 57.815801 c 0,0 22.5908956,-8.165929 60.4100846,-8.165929 z"
             id="shield-left"
             fill="#dbdbdb"
             fill-rule="nonzero" />
          <path
             d="m 64.615562,49.649872 c -0.02797,0 -0.05425,8.27e-4 -0.08223,0 V 197.65869 h 8.48e-4 l 59.87933,-41.97174 V 57.815801 c 0,0 -21.97876,-8.165929 -59.797948,-8.165929 z"
             id="shield-right"
             fill="#c6c6c6"
             fill-rule="nonzero" />
          <path
             d="M 97.220763,174.75406 92.126674,130.54749 H 64.13 c 0,35.08653 0,57.5327 0,67.33852 l 0.403333,0.38045 c 10.892024,-7.44094 21.787834,-15.27841 32.68743,-23.5124 z"
             id="neck-right"
             fill="#3b3b63"
             fill-rule="nonzero" />
          <polygon
             id="neck-left"
             fill="#53537a"
             fill-rule="nonzero"
             points="36.255723,129.20127 31.863333,175.10294 64.533333,198.26646 64.549532,129.20127 " />
          <path
             d="m 78.513247,162.01801 c 0,7.59483 -7.216509,11.35986 -13.836797,11.35986 -6.620288,0 -13.98276,-3.76503 -13.98276,-11.35986"
             id="chin"
             fill="#bc9375"
             fill-rule="nonzero" />
          <path
             d="m 64.603056,165.94576 c -5.314867,0 -7.899319,-3.83303 -7.899319,-11.71281 h 2.534148 c 0,9.22518 3.622686,9.22518 5.365171,9.22518 1.74166,0 5.365171,0 5.365171,-9.22518 h 2.533324 c 0,7.87978 -2.584453,11.71281 -7.898495,11.71281 z"
             id="teeth"
             fill="#ffffff"
             fill-rule="nonzero" />
          <path
             d="m 64.533333,156.15635 c 1.635254,4.22618 4.795986,6.33928 9.482195,6.33928 4.588351,0 9.376267,-2.37349 11.556641,-8.2392 3.045431,-8.2052 3.014919,-19.62577 3.014919,-19.62577 0,0 13.533442,-16.64881 13.533442,-22.2784 0,0 -12.529063,0 -37.587197,0 z"
             id="face-right"
             fill="#c49a7e"
             fill-rule="nonzero" />
          <path
             d="m 26.401003,112.35226 c 0,6.51942 13.416303,22.2784 13.416303,22.2784 0,0 -0.03299,11.41733 3.015744,19.62577 2.175426,5.86166 6.968289,8.2392 11.557465,8.2392 4.686209,0 8.067149,-2.1131 10.142818,-6.33928 v -43.80409 z"
             id="face-left"
             fill="#d8b7a0"
             fill-rule="nonzero" />
          <path
             d="M 100.505,74.865312 C 90.072361,64.353819 87.46317,42.434705 87.46317,42.434705 c -1.947823,6.906743 -6.181574,27.270788 -6.181574,27.270788 0,0 -8.223135,-2.613334 -17.080698,-2.627096 -0.290826,0 -0.290826,27.437307 0,82.311923 l 8.432597,-5.98943 1.567659,-29.06628 8.978786,10.06707 11.566536,3.32143 c 0,0 4.327761,-3.03243 4.327761,-3.0211 1.837323,-2.52891 2.446733,-4.68302 2.891223,-5.80095 1.60642,-4.06698 -2.000601,-35.16918 -2.000601,-35.16918 -1.280681,-2.634147 0.540141,-8.866568 0.540141,-8.866568 z"
             id="brow-right"
             fill="#3b3b63"
             fill-rule="nonzero" />
          <path
             d="m 48.005332,69.703873 c 0,0 -4.235401,-20.363234 -6.181574,-27.270787 0,0 -2.607542,21.919114 -13.041835,32.430607 0,0 1.820827,6.233231 0.540146,8.866568 0,0 -3.607018,31.103819 -2.0006,35.164319 0.443661,1.11875 1.058025,3.27205 2.892871,5.80096 0,-0.0113 4.330235,3.0219 4.330235,3.0219 l 11.564062,-3.32223 8.977137,-10.06545 1.571782,29.06628 7.884295,5.8309 V 66.924103 c -8.890548,0.01457 -16.536519,2.77977 -16.536519,2.77977 z"
             id="brow-left"
             fill="#53537a"
             fill-rule="nonzero" />
          <path
             d="m 93.204381,22.12166 c 1.73094,3.170043 16.611139,32.476449 16.611139,42.625281 l -6.59989,17.664627 c 1.11657,9.967502 3.33736,31.625142 1.66084,35.856452 -1.03493,2.61715 -4.980057,8.00121 -8.354524,12.36123 l 4.613384,41.37772 -6.236491,4.41298 -3.467455,-30.23353 c -0.476648,3.06804 -1.193268,6.34413 -2.285929,9.28589 -1.444786,3.89375 -3.997901,6.84441 -7.263514,8.59215 -0.191319,9.33446 -8.951572,14.37043 -17.205491,14.37043 -8.322365,0 -17.156012,-5.03192 -17.35063,-14.36315 -3.272209,-1.75097 -5.828624,-4.70163 -7.275059,-8.59943 -1.048954,-2.82843 -1.755679,-5.95961 -2.234801,-8.92485 l -3.317076,30.42824 -6.270314,-4.48475 4.528165,-41.73542 c -3.400856,-4.37945 -7.421848,-9.84365 -8.466679,-12.48993 -1.676513,-4.23213 0.457681,-25.88653 1.575906,-35.855651 L 18.873757,64.126347 v -0.5958 c 0,-10.148832 15.270038,-38.238844 17.003452,-41.408887 l 4.945424,-8.899758 c 3.011071,20.61985 4.515507,30.938949 4.513308,30.957298 l 2.435191,16.709105 3.203763,5.1752 c 3.078418,-1.020793 8.304223,-2.438245 13.596,-2.438245 5.297549,0 10.558814,1.42231 13.650426,2.441483 l 3.202115,-5.177629 6.937778,-47.667212 z M 64.67645,171.80014 c 3.653198,0 8.855913,-1.62307 10.154736,-5.92562 -0.139366,0.004 -0.273784,0.0154 -0.413149,0.0154 -0.710848,0 -1.375516,-0.0656 -2.020392,-0.15219 -1.884325,2.57506 -4.820078,3.35623 -7.793764,3.35623 -2.968739,0 -5.89872,-0.78846 -7.779745,-3.35946 -0.649,0.0907 -1.321089,0.15542 -2.03771,0.15542 -0.136892,0 -0.268835,-0.0113 -0.403254,-0.0154 1.312018,4.30255 6.584828,5.92562 10.293278,5.92562 z m -4.278283,-7.07189 c 1.133069,0.8338 2.533324,1.29765 4.208188,1.29765 1.665792,0 3.05945,-0.46709 4.190869,-1.29765 -0.902166,-0.39423 -1.71857,-0.86374 -2.438489,-1.37616 -0.651473,0.18942 -1.274908,0.18537 -1.755679,0.18537 -0.483245,0 -1.113277,0 -1.769698,-0.18942 -0.71827,0.51647 -1.533024,0.98598 -2.435191,1.38021 z M 86.35649,132.62874 c 4.488568,-5.47553 11.245748,-14.29434 12.224607,-16.76253 0.738061,-2.54106 -0.521179,-19.386969 -2.123473,-33.506451 l -0.08824,-0.782796 1.324388,-3.507609 C 93.327254,73.49724 90.280998,67.231629 88.199582,61.314917 l -0.270485,1.858636 -6.894071,11.129149 -2.692482,-1.126838 c -0.06597,-0.02833 -7.095285,-2.919095 -13.767526,-2.919095 -6.715122,0 -13.630634,2.888334 -13.698256,2.916666 L 48.180157,74.309988 41.27784,63.175981 41.073327,61.749624 c -2.103682,5.859237 -5.153236,12.014754 -9.49914,16.487299 l 1.265013,3.342469 -0.08824,0.783606 c -1.603119,14.116243 -2.862359,30.962152 -2.099558,33.567162 0.95412,2.40829 7.712124,11.2271 12.198218,16.69858 l 0.748782,0.91393 -0.0041,1.17137 c 0,0.11009 0.01319,10.94215 2.812055,18.48031 2.031937,5.46743 6.539472,6.0519 8.385863,6.0519 4.641128,0 6.604619,-4.18274 6.685435,-4.36083 1.087619,-2.10171 1.631428,-5.55461 1.631428,-10.35869 0,0 2.806003,0 2.806003,0 0,3.85965 0.584954,7.32011 1.754863,10.38135 0.07092,0.15138 2.08389,4.34869 6.748109,4.34869 1.842267,0 6.351451,-0.59094 8.381739,-6.05837 2.807932,-7.56488 2.811231,-18.37427 2.811231,-18.48032 l -0.0033,-1.17136 z"
             id="face-outline"
             fill="#333152"
             fill-rule="nonzero" />
          <path
             d="M 85.591215,103.18684 H 75.45627 72.078505 v 0.14005 c 0,4.63364 4.080367,8.38734 8.866633,8.38734 4.787916,0 8.868283,-3.75451 8.868283,-8.38734 v -0.14005 z"
             id="eye-shadow-right"
             fill="#333152"
             fill-rule="nonzero" />
          <path
             d="m 75.45627,103.18684 v 0.14005 c 0,2.75638 2.25954,4.98982 5.068297,4.98982 2.808757,0 5.067472,-2.23344 5.067472,-4.98982 v -0.14005 z"
             id="eye-right"
             fill="#ffffff"
             fill-rule="nonzero" />
          <path
             d="m 79.713112,103.18684 c -0.02309,0 -0.04288,0.0113 -0.0635,0.0154 0.2944,0.0607 0.45768,0.71641 0.394182,1.15274 -0.09483,0.66703 -0.673738,1.13007 -1.336757,1.14141 0.192968,0.87184 0.917011,1.57288 1.878552,1.70564 1.228728,0.1708 2.364271,-0.65652 2.538272,-1.86188 0.125347,-0.88722 -0.309244,-2.1533 -1.03576,-2.1533 z"
             id="eye-pupil-right"
             fill="#333152"
             fill-rule="nonzero" />
          <path
             d="M 52.972197,103.18684 H 42.838901 39.460312 v 0.14005 c 0,4.63364 4.081191,8.38734 8.866633,8.38734 4.787916,0 8.869107,-3.75451 8.869107,-8.38734 v -0.14005 z"
             id="eye-shadow-left"
             fill="#333152"
             fill-rule="nonzero" />
          <path
             d="m 42.838901,103.18684 v 0.14005 c 0,2.75638 2.26119,4.98982 5.065823,4.98982 2.809582,0 5.068297,-2.23344 5.068297,-4.98982 v -0.14005 z"
             id="eye-left"
             fill="#ffffff"
             fill-rule="nonzero" />
          <path
             d="m 49.470734,103.18684 h -2.377465 c -0.02062,0 -0.04288,0.0113 -0.06185,0.0154 0.293575,0.0607 0.456031,0.71641 0.394182,1.15274 -0.09566,0.66703 -0.671265,1.13007 -1.338406,1.14141 0.195441,0.87184 0.919484,1.57288 1.879376,1.70564 1.227904,0.1708 2.36592,-0.65652 2.537447,-1.86188 0.126996,-0.88722 -0.306769,-2.1533 -1.033286,-2.1533 z"
             id="eye-pupil-left"
             fill="#333152"
             fill-rule="nonzero" />
          <path
             d="m 84.571948,99.231576 c 0.567359,-0.610371 5.384138,-5.975806 -1.058025,-5.975806 -5.821202,0 -10.009598,4.610972 -11.119577,5.975806 z"
             id="path31"
             fill="#c49a7e"
             fill-rule="nonzero" />
          <path
             d="M 56.784552,99.231576 C 55.675398,97.866742 51.487003,93.25577 45.664151,93.25577 c -6.438864,0 -1.622085,5.365435 -1.058025,5.975806 z"
             id="path33"
             fill="#d8b7a0"
             fill-rule="nonzero" />
          <path
             d="m 25.814834,62.990604 c 0.382637,-5.264247 5.961392,-17.877229 11.282857,-28.50691 l 1.418397,9.718982 c -0.54097,3.633892 -3.01327,17.885323 -9.645103,26.868461 z"
             id="ear-left"
             fill="#d8b7a0"
             fill-rule="nonzero" />
          <path
             d="m 90.803001,43.445784 1.30707,-8.961281 c 5.32064,10.628872 10.902689,23.242664 11.285329,28.50691 l -2.9844,7.888679 C 93.245613,60.991113 90.997618,44.915045 90.803001,43.445784 Z"
             id="ear-right"
             fill="#c49a7e"
             fill-rule="nonzero" />
          <mask
             id="mask-2"
             fill="#ffffff">
            <use
               xlink:href="#path-1"
               id="use37"
               x="0"
               y="0"
               width="100%"
               height="100%" />
          </mask>
          <use
             id="nose"
             fill="#333152"
             fill-rule="nonzero"
             xlink:href="#path-1"
             x="0"
             y="0"
             width="100%"
             height="100%" />
        </g>
      </g>
    </g>
  </g>
  <metadata
     id="metadata864">
    <rdf:RDF>
      <cc:Work
         rdf:about="">
        <dc:title>logo-black</dc:title>
      </cc:Work>
    </rdf:RDF>
  </metadata>
</svg>
