<?xml version="1.0" encoding="UTF-8" standalone="no"?>
<!-- Created with Inkscape (http://www.inkscape.org/) -->

<svg
   version="1.1"
   id="svg2"
   xml:space="preserve"
   width="1200"
   height="199.26813"
   viewBox="0 0 1200 199.26812"
   sodipodi:docname="Codenvy-Logo_1200.svg"
   inkscape:version="1.1.1 (3bf5ae0d25, 2021-09-20)"
   xmlns:inkscape="http://www.inkscape.org/namespaces/inkscape"
   xmlns:sodipodi="http://sodipodi.sourceforge.net/DTD/sodipodi-0.dtd"
   xmlns="http://www.w3.org/2000/svg"
   xmlns:svg="http://www.w3.org/2000/svg"><defs
     id="defs6"><clipPath
       clipPathUnits="userSpaceOnUse"
       id="clipPath16"><path
         d="M 0,113.645 H 684.375 V 0 H 0 Z"
         id="path14" /></clipPath></defs><sodipodi:namedview
     id="namedview4"
     pagecolor="#ffffff"
     bordercolor="#666666"
     borderopacity="1.0"
     inkscape:pageshadow="2"
     inkscape:pageopacity="0.0"
     inkscape:pagecheckerboard="0"
     showgrid="false"
     inkscape:zoom="1.2120548"
     inkscape:cx="445.93693"
     inkscape:cy="75.904159"
     inkscape:window-width="1920"
     inkscape:window-height="1010"
     inkscape:window-x="-6"
     inkscape:window-y="-6"
     inkscape:window-maximized="1"
     inkscape:current-layer="g8"
     fit-margin-top="0"
     fit-margin-left="0"
     fit-margin-right="0"
     fit-margin-bottom="0" /><g
     id="g8"
     inkscape:groupmode="layer"
     inkscape:label="Codenvy-Logo"
     transform="matrix(1.3333333,0,0,-1.3333333,-4e-4,151.52667)"><g
       id="g10"
       transform="matrix(1.3150697,0,0,1.3150697,-9.4520904e-5,-35.806094)"><g
         id="g12"
         clip-path="url(#clipPath16)"><g
           id="g18"
           transform="translate(302.5725,81.5595)"><path
             d="m 0,0 c -0.63,2.434 -1.493,4.674 -2.593,6.718 -1.101,2.042 -2.515,3.81 -4.243,5.304 -1.73,1.491 -3.753,2.651 -6.07,3.477 -2.319,0.824 -5.009,1.237 -8.073,1.237 -4.479,0 -8.35,-0.904 -11.61,-2.711 -3.261,-1.808 -5.913,-4.224 -7.955,-7.249 -2.044,-3.025 -3.557,-6.464 -4.538,-10.313 -0.983,-3.85 -1.473,-7.778 -1.473,-11.785 0,-4.008 0.49,-7.937 1.473,-11.786 0.981,-3.851 2.494,-7.289 4.538,-10.313 2.042,-3.026 4.694,-5.442 7.955,-7.248 3.26,-1.809 7.131,-2.711 11.61,-2.711 3.299,0 6.206,0.569 8.721,1.709 2.514,1.138 4.674,2.711 6.483,4.714 1.806,2.004 3.221,4.34 4.243,7.013 1.02,2.67 1.688,5.54 2.003,8.604 H 14.85 c -0.315,-5.029 -1.396,-9.626 -3.241,-13.79 -1.847,-4.166 -4.343,-7.76 -7.484,-10.784 -3.144,-3.026 -6.836,-5.363 -11.079,-7.013 -4.243,-1.65 -8.919,-2.475 -14.025,-2.475 -6.287,0 -11.924,1.16 -16.914,3.477 -4.99,2.316 -9.212,5.481 -12.669,9.488 -3.458,4.007 -6.111,8.681 -7.955,14.025 -1.848,5.342 -2.771,11.039 -2.771,17.09 0,5.971 0.923,11.628 2.771,16.972 1.844,5.342 4.497,10.017 7.955,14.025 3.457,4.007 7.679,7.189 12.669,9.547 4.99,2.357 10.627,3.536 16.914,3.536 4.714,0 9.152,-0.648 13.317,-1.945 C -3.498,25.517 0.177,23.63 3.359,21.156 6.541,18.681 9.113,15.675 11.079,12.14 13.042,8.603 14.261,4.556 14.733,0 Z"
             style="fill:#004e72;fill-opacity:1;fill-rule:nonzero;stroke:none"
             id="path20" /></g><g
           id="g22"
           transform="translate(352.048,33.1187)"><path
             d="m 0,0 c 2.986,0 5.579,0.628 7.78,1.885 2.197,1.257 4.006,2.907 5.421,4.951 1.414,2.042 2.454,4.34 3.123,6.894 0.667,2.553 1.001,5.166 1.001,7.838 0,2.593 -0.334,5.186 -1.001,7.779 -0.669,2.593 -1.709,4.891 -3.123,6.894 -1.415,2.005 -3.224,3.634 -5.421,4.893 -2.201,1.255 -4.794,1.885 -7.78,1.885 -2.987,0 -5.58,-0.63 -7.779,-1.885 -2.201,-1.259 -4.006,-2.888 -5.421,-4.893 -1.414,-2.003 -2.456,-4.301 -3.123,-6.894 -0.669,-2.593 -1.002,-5.186 -1.002,-7.779 0,-2.672 0.333,-5.285 1.002,-7.838 0.667,-2.554 1.709,-4.852 3.123,-6.894 1.415,-2.044 3.22,-3.694 5.421,-4.951 C -5.58,0.628 -2.987,0 0,0 m 0,-10.608 c -4.872,0 -9.213,0.807 -13.023,2.417 -3.812,1.609 -7.033,3.83 -9.665,6.659 -2.633,2.828 -4.637,6.206 -6.011,10.136 -1.375,3.928 -2.062,8.25 -2.062,12.964 0,4.635 0.687,8.917 2.062,12.847 1.374,3.928 3.378,7.307 6.011,10.136 2.632,2.829 5.853,5.048 9.665,6.659 3.81,1.61 8.151,2.416 13.023,2.416 4.871,0 9.211,-0.806 13.024,-2.416 3.81,-1.611 7.031,-3.83 9.665,-6.659 2.631,-2.829 4.635,-6.208 6.01,-10.136 1.374,-3.93 2.063,-8.212 2.063,-12.847 0,-4.714 -0.689,-9.036 -2.063,-12.964 C 27.324,4.674 25.32,1.296 22.689,-1.532 20.055,-4.361 16.834,-6.582 13.024,-8.191 9.211,-9.801 4.871,-10.608 0,-10.608"
             style="fill:#004e72;fill-opacity:1;fill-rule:nonzero;stroke:none"
             id="path24" /></g><g
           id="g26"
           transform="translate(398.912,53.9797)"><path
             d="m 0,0 c 0,-2.593 0.332,-5.147 1.001,-7.66 0.667,-2.516 1.689,-4.756 3.064,-6.718 1.375,-1.966 3.124,-3.537 5.246,-4.715 2.121,-1.179 4.635,-1.768 7.542,-1.768 2.986,0 5.559,0.628 7.72,1.885 2.16,1.257 3.929,2.907 5.304,4.951 1.374,2.042 2.396,4.34 3.064,6.894 0.667,2.554 1.002,5.166 1.002,7.839 0,6.756 -1.514,12.021 -4.537,15.793 -3.026,3.772 -7.131,5.657 -12.317,5.657 -3.143,0 -5.795,-0.648 -7.955,-1.945 C 6.972,18.917 5.203,17.226 3.83,15.145 2.454,13.063 1.473,10.705 0.883,8.073 0.294,5.44 0,2.75 0,0 m 46.908,-29.818 h -12.73 v 8.25 h -0.235 c -1.809,-3.536 -4.44,-6.07 -7.896,-7.602 -3.458,-1.533 -7.112,-2.299 -10.961,-2.299 -4.794,0 -8.979,0.846 -12.553,2.535 -3.576,1.689 -6.541,3.987 -8.898,6.894 -2.357,2.907 -4.125,6.345 -5.303,10.313 -1.179,3.967 -1.769,8.23 -1.769,12.788 0,5.499 0.747,10.254 2.24,14.261 1.491,4.007 3.477,7.307 5.952,9.9 2.474,2.593 5.304,4.497 8.486,5.717 3.182,1.217 6.423,1.827 9.723,1.827 1.886,0 3.811,-0.177 5.775,-0.531 1.963,-0.354 3.85,-0.924 5.657,-1.709 1.807,-0.786 3.478,-1.788 5.01,-3.006 1.532,-1.218 2.808,-2.651 3.83,-4.301 h 0.236 v 31.115 h 13.436 z"
             style="fill:#004e72;fill-opacity:1;fill-rule:nonzero;stroke:none"
             id="path28" /></g><g
           id="g30"
           transform="translate(493.049,59.991)"><path
             d="m 0,0 c -0.159,2.122 -0.609,4.164 -1.355,6.128 -0.749,1.963 -1.769,3.673 -3.065,5.128 -1.297,1.452 -2.869,2.631 -4.714,3.535 -1.848,0.903 -3.91,1.356 -6.188,1.356 -2.357,0 -4.499,-0.413 -6.423,-1.238 -1.926,-0.825 -3.576,-1.965 -4.951,-3.418 -1.375,-1.455 -2.474,-3.164 -3.3,-5.126 C -30.821,4.399 -31.273,2.277 -31.35,0 Z m -31.35,-8.839 c 0,-2.358 0.332,-4.637 1.001,-6.836 0.666,-2.201 1.669,-4.126 3.005,-5.775 1.335,-1.651 3.024,-2.967 5.068,-3.949 2.042,-0.983 4.479,-1.473 7.307,-1.473 3.929,0 7.09,0.843 9.489,2.534 2.395,1.688 4.183,4.222 5.362,7.602 h 12.729 c -0.707,-3.3 -1.926,-6.246 -3.654,-8.84 -1.729,-2.593 -3.812,-4.773 -6.246,-6.542 -2.437,-1.767 -5.168,-3.105 -8.191,-4.006 -3.026,-0.902 -6.188,-1.356 -9.489,-1.356 -4.793,0 -9.036,0.787 -12.728,2.358 -3.694,1.571 -6.818,3.77 -9.37,6.6 -2.554,2.829 -4.479,6.205 -5.775,10.136 -1.297,3.927 -1.945,8.25 -1.945,12.964 0,4.32 0.686,8.428 2.063,12.316 1.373,3.89 3.338,7.308 5.892,10.255 2.553,2.946 5.637,5.283 9.252,7.012 3.614,1.728 7.7,2.593 12.258,2.593 4.792,0 9.093,-1.002 12.906,-3.005 3.81,-2.004 6.972,-4.656 9.487,-7.956 2.515,-3.3 4.341,-7.092 5.48,-11.373 1.139,-4.284 1.433,-8.704 0.885,-13.259 z"
             style="fill:#004e72;fill-opacity:1;fill-rule:nonzero;stroke:none"
             id="path32" /></g><g
           id="g34"
           transform="translate(510.1843,85.095)"><path
             d="m 0,0 h 12.728 v -8.957 l 0.236,-0.237 c 2.042,3.378 4.715,6.031 8.015,7.957 3.299,1.924 6.953,2.887 10.961,2.887 6.677,0 11.942,-1.729 15.793,-5.186 3.848,-3.459 5.775,-8.644 5.775,-15.558 v -41.84 H 40.072 v 38.305 c -0.158,4.791 -1.179,8.268 -3.064,10.431 -1.886,2.16 -4.833,3.241 -8.84,3.241 -2.28,0 -4.322,-0.413 -6.128,-1.238 -1.809,-0.825 -3.341,-1.965 -4.597,-3.418 -1.258,-1.455 -2.239,-3.164 -2.947,-5.126 -0.707,-1.966 -1.06,-4.049 -1.06,-6.247 V -60.934 H 0 Z"
             style="fill:#004e72;fill-opacity:1;fill-rule:nonzero;stroke:none"
             id="path36" /></g><g
           id="g38"
           transform="translate(562.3555,85.095)"><path
             d="M 0,0 H 14.614 L 30.055,-46.791 H 30.29 L 45.14,0 H 59.047 L 37.244,-60.934 H 22.158 Z"
             style="fill:#004e72;fill-opacity:1;fill-rule:nonzero;stroke:none"
             id="path40" /></g><g
           id="g42"
           transform="translate(624.0307,85.095)"><path
             d="M 0,0 H 14.733 L 30.644,-45.494 H 30.88 L 46.319,0 H 60.344 L 36.655,-64.234 c -1.101,-2.75 -2.181,-5.381 -3.242,-7.897 -1.06,-2.513 -2.356,-4.732 -3.888,-6.658 -1.532,-1.925 -3.439,-3.457 -5.717,-4.597 -2.28,-1.138 -5.186,-1.709 -8.721,-1.709 -3.144,0 -6.248,0.236 -9.312,0.707 v 11.315 c 1.1,-0.157 2.16,-0.334 3.182,-0.53 1.02,-0.196 2.081,-0.295 3.183,-0.295 1.57,0 2.867,0.196 3.89,0.589 1.019,0.394 1.865,0.963 2.533,1.709 0.667,0.747 1.238,1.631 1.71,2.651 0.471,1.023 0.901,2.201 1.295,3.537 l 1.533,4.714 z"
             style="fill:#004e72;fill-opacity:1;fill-rule:nonzero;stroke:none"
             id="path44" /></g><g
           id="g46"
           transform="translate(9.6613,49.537)"><path
             d="m 0,0 c 0,11.594 -9.661,12.39 -9.661,12.39 v 9.775 c 0,0 9.661,0.796 9.661,12.617 v 9.548 c 0,17.96 12.958,19.778 18.414,19.778 1.592,0 2.615,-0.113 2.615,-0.113 v -8.412 h -1.592 c -2.842,0 -9.775,-1.023 -9.775,-11.935 V 31.94 C 9.662,20.688 0.455,17.505 0.455,17.505 v -0.228 c 0,0 9.207,-2.728 9.207,-14.436 V -10.23 c 0,-10.912 6.933,-11.935 9.775,-11.935 h 1.592 v -8.412 c 0,0 -1.023,-0.227 -2.615,-0.227 C 12.958,-30.804 0,-28.985 0,-10.912 Z"
             style="fill:#004e72;fill-opacity:1;fill-rule:nonzero;stroke:none"
             id="path48" /></g><g
           id="g50"
           transform="translate(176.9048,27.3717)"><path
             d="m 0,0 c 2.841,0 9.776,1.023 9.776,11.935 v 13.072 c 0,11.708 9.206,14.436 9.206,14.436 v 0.227 c 0,0 -9.206,3.183 -9.206,14.436 V 65.814 C 9.776,76.726 2.841,77.749 0,77.749 h -1.591 v 8.411 c 0,0 1.023,0.113 2.614,0.113 5.456,0 18.414,-1.818 18.414,-19.778 v -9.547 c 0,-11.822 9.662,-12.617 9.662,-12.617 v -9.776 c 0,0 -9.662,-0.796 -9.662,-12.39 V 11.253 C 19.437,-6.82 6.479,-8.638 1.023,-8.638 c -1.591,0 -2.614,0.227 -2.614,0.227 V 0 Z"
             style="fill:#004e72;fill-opacity:1;fill-rule:nonzero;stroke:none"
             id="path52" /></g><g
           id="g54"
           transform="translate(77.4639,78.2487)"><path
             d="m 0,0 c -10.491,0 -19.026,-8.535 -19.026,-19.026 0,-10.492 8.535,-19.027 19.026,-19.027 h 54.414 c 8.532,0 15.472,6.941 15.472,15.472 0,8.028 -6.262,14.8 -14.258,15.419 l -2.493,0.193 -1.251,2.165 c -2.678,4.63 -7.456,7.519 -12.782,7.728 l -3.043,0.12 -1.161,2.816 c -2.4,5.821 -8.016,9.582 -14.309,9.582 -7.174,0 -13.357,-4.865 -15.037,-11.83 L 4.64,-0.17 0.753,-0.02 C 0.503,-0.011 0.253,0 0,0 M 54.414,-47.551 H 0 c -15.728,0 -28.525,12.796 -28.525,28.525 0,14.871 11.44,27.121 25.981,28.412 3.767,9.316 12.816,15.554 23.133,15.554 9.165,0 17.441,-4.942 21.813,-12.81 6.608,-1.037 12.481,-4.662 16.384,-10.129 5.32,-0.939 10.192,-3.581 13.917,-7.584 4.309,-4.632 6.682,-10.668 6.682,-16.998 0,-13.768 -11.202,-24.97 -24.971,-24.97"
             style="fill:#004e72;fill-opacity:1;fill-rule:nonzero;stroke:none"
             id="path56" /></g></g></g></g></svg>
